<svg width="72" height="89" viewBox="0 0 72 89" fill="none" xmlns="http://www.w3.org/2000/svg">
<mask id="mask0_1886_7647" style="mask-type:alpha" maskUnits="userSpaceOnUse" x="0" y="0" width="72" height="89">
<rect width="72" height="89" rx="20" fill="#414141"/>
</mask>
<g mask="url(#mask0_1886_7647)">
<path d="M35.9208 76.127C35.8048 80.0198 34.21 92.3147 34.5 96.5029L29.1064 95.9997C28.4056 94.0872 29.2539 96.3851 28.5 94.0029C27.5576 91.0252 27.3531 90.1112 27.1357 85.2451C26.9182 80.379 27.3271 74.0129 27.7291 72.0029C28.7291 67.0029 28.5 65.5029 28.5 61.0029C28.5 57.5434 27.474 44.9071 27.1357 43.5029C26.6524 44.9313 24.5 50.8057 24.5 51.5029C24.5 52.3745 23.4933 57.2787 23 59.5029C22.477 61.8609 22 63.2918 21.5 65.5029C21.2061 66.8028 18.9022 71.9936 19.708 73.1752C20.5522 74.4131 20.4072 74.7196 20.4072 75.8817C20.4072 76.8113 20.5039 77.8185 20.5522 78.2058C20.7138 78.9007 20.9147 80.0215 20.4072 80.2394C19.8997 80.4573 19.7854 79.3649 19.708 79.0554C19.6094 78.6608 19.1664 77.4069 18.8569 77.4069C18.6115 77.9879 18.8569 79.7165 18.8569 80.2394C18.8569 80.8931 19.8997 82.1203 19.8997 82.8466C19.8997 83.5729 19.0117 83.0014 18.5474 82.1503C18.4086 81.8957 17 78.7142 17 77.4069C17 76.0996 17 70.6525 17.5075 69.0546L17.5238 69.0032C18.0276 67.4173 18.611 65.5805 19 61.5029C19.1431 60.0029 19.708 55.4731 20.4072 52.5029C20.5 50.5029 21 50.0029 21.5 46.5029C22.1696 41.8158 22 41.5029 23 37.5029C23.6694 34.8255 23.7026 33.2292 24.5 32.5029C25.2974 31.7766 26.2538 30.82 27.7291 30.1259C29.4047 29.3375 30.9913 28.8912 32.0787 28.2375C32.9486 27.7146 32.1029 24.1461 31.5713 22.4273L39.2556 20.1758V23.4441C39.2556 25.6955 40.3401 28.0196 41.5 28.2375C42.6599 28.4554 43.785 29.1063 46 29.5029C48.0815 29.8757 49.065 31.0672 49.5 31.5029C49.935 31.9387 50.3033 34.7162 51 37.5029C51.5 39.5029 51.8024 42.3487 52 43.5029C52.7702 48.0029 53 51.5029 53.5 54.0029C54.1126 57.0659 54.2822 58.5296 54.5 61.5029C54.8071 65.6945 55.0016 68.042 55.2191 70.0029C55.4365 71.9639 55.7265 71.0828 55.654 73.5522C55.5815 76.0215 55.509 76.4573 55.2191 77.4015C54.9291 78.3456 55.1466 78.273 54.6391 79.7982C54.2332 81.0183 53.8683 81.7136 53.6025 82.1736C53.1485 82.9591 52.4419 82.0188 52.8288 81.2451C53.0463 81.0272 53.767 78.3349 53.912 77.6087C54.028 77.0276 53.8346 75.8291 53.4792 75.6584C52.8993 75.731 52.66 76.5299 52.66 77.4015C52.66 78.273 52.1032 79.0455 51.6682 78.5371C51.2332 78.0287 51.5135 76.7526 51.5135 76.2934C51.5135 75.3809 51.4546 75.1237 51.6682 74.127C51.9003 73.0438 52.37 72.4832 52.66 72.1927C52.9499 71.9022 52.6093 69.9934 52.6093 68.9039C52.6093 67.8145 52.4979 66.9967 51.5 64.0029C51 62.5029 49.5 57.5924 49.5 56.5029C49.5 55.6314 48 48.0029 46 42.5029C45 50.0029 44.5 59.853 44.5 63.0029C44.5 67.0029 45.3251 68.0029 46 74.0029C46.591 79.2574 47.0213 81.737 47.5 87.0029C47.9995 92.497 47.7904 93.963 47.5009 95.9932L47.5 95.9997H40.8504C38.8786 86.3547 37.3224 78.0153 36.4283 76.2722C36.3703 76.2141 36.0658 76.1512 35.9208 76.127Z" fill="#F5F5F5" stroke="#8E8E8E" stroke-width="0.5" stroke-linejoin="round"/>
<ellipse cx="36.5" cy="63" rx="0.5" ry="1" fill="#8C8C8C"/>
<path d="M28.4999 16.989C28.3175 15.3469 26.9288 12.123 26.4473 10.6025C27.0048 10.6025 28.6672 10.6789 29.3362 11.8953C30.0052 13.1117 29.0575 15.7979 28.4999 16.989Z" fill="#8C8C8C"/>
<path d="M28.0826 11.9982L28.071 11.892L27.9861 11.827C26.7507 10.8807 26.2501 9.476 26.553 8.16581C26.8552 6.85841 27.9721 5.59108 30.0835 4.96316C33.4904 3.94998 36.1208 5.00858 36.9806 5.63251L37.0463 5.68017H37.1274C40.2018 5.68017 41.6958 6.75201 42.3623 8.01976C43.0419 9.31235 42.9039 10.885 42.5531 11.9471L42.5405 11.9853V12.0255C42.5405 13.1945 42.4321 15.6565 42.2689 17.9465C42.1873 19.0908 42.0924 20.1886 41.9909 21.0576C41.9401 21.4923 41.888 21.867 41.8357 22.1604C41.7817 22.463 41.7315 22.6534 41.6924 22.7382C41.5988 22.9404 41.3097 23.3524 40.8767 23.873C40.4503 24.3856 39.9017 24.9831 39.3083 25.5513C38.7141 26.1203 38.0806 26.6547 37.4843 27.0451C36.8783 27.4418 36.349 27.6641 35.9541 27.6641C35.5557 27.6641 34.9723 27.4319 34.2845 27.0228C33.6089 26.6209 32.8727 26.0732 32.1814 25.4958C31.4907 24.919 30.8501 24.3173 30.3658 23.8105C30.1235 23.5569 29.9226 23.3295 29.7747 23.1426C29.6201 22.9471 29.543 22.8196 29.522 22.76C29.5007 22.6997 29.4654 22.5444 29.4189 22.289C29.3738 22.0413 29.3211 21.7174 29.2629 21.3339C29.1465 20.5673 29.0088 19.5689 28.8661 18.4794C28.5807 16.3007 28.276 13.763 28.0826 11.9982Z" fill="#F5F5F5" stroke="#8E8E8E" stroke-width="0.5"/>
<path d="M42.0324 7.2574C42.6407 12.199 31.6917 15.4276 26.0672 13.9476C14.5102 10.9066 25.1707 10.6215 25.7629 8.62585C26.8275 5.03909 28.8801 3 33.5176 3C39.9037 3 42.0324 4.61219 42.0324 7.2574Z" fill="#8C8C8C"/>
<path d="M43.0964 11.7433C42.2476 13.6591 41.9454 11.676 39.5232 10.6029C37.101 9.52978 33.9484 9.041 34.7972 7.12517C35.6459 5.20934 38.2976 4.52618 40.7198 5.59929C43.142 6.6724 43.9451 9.82743 43.0964 11.7433Z" fill="#8C8C8C"/>
</g>
</svg>
