<svg width="72" height="89" viewBox="0 0 72 89" fill="none" xmlns="http://www.w3.org/2000/svg">
<mask id="mask0_1886_7707" style="mask-type:alpha" maskUnits="userSpaceOnUse" x="0" y="0" width="72" height="89">
<rect width="72" height="89" rx="20" fill="#414141"/>
</mask>
<g mask="url(#mask0_1886_7707)">
<path d="M35.501 79.5891C37.001 83.4178 39.9438 91.3848 40.001 93.0029C40.0893 95.5029 50.9606 97.0029 50.9606 96.5029V93.0029C50.9606 93.0029 52.5005 87.0029 50.0312 73.3765C50.9287 71.8167 53.001 69.5029 52.5005 60.0029C52.17 53.7288 47.8866 50.6933 47.7436 49.393C47.6006 48.0927 48.7444 45.9978 50.0312 43.1804C50.3406 42.5029 50.0005 44.0029 50.0312 46.0029C50.0771 49.0026 50.5963 50.734 51.5005 54.0029C52.3114 56.9342 52.5005 59.0029 54.0005 61.5029C54.0005 66.0029 56.9298 69.8357 56.0004 72.0029C54.9284 74.5029 54.0005 76.5029 55.001 79.0029C55.514 80.2849 56.501 75.038 57.001 77.4219C58.0538 82.4417 55.5627 82.2456 56.501 83.0029C57.001 83.4178 58.3993 83.4846 59.0006 82.0029C59.3555 81.1286 60.5325 78.52 60.4993 77.0029C60.4439 74.4717 59.5007 72.9431 59.5007 72.9431C59.5007 72.9431 60.0006 66.5345 60.0007 62.5029C60.0009 59.0029 59.5002 54.0029 59.5004 49.5029C59.5005 47.3038 59.5004 42.5029 56.5005 36.5029C54.7045 32.9108 54.0312 31.4051 50.0312 29.5029C47.6006 28.3471 44.9997 28.0029 44.9997 28.0029C44.9997 28.0029 41.8373 27.4322 40.4076 26.6376C39.2638 26.0019 39.3592 22.6163 39.5498 21.0029H30.8015C30.8729 22.3996 30.73 25.3951 29.5862 26.2042C28.1565 27.2155 25.8689 28.0824 23.5099 29.0937C21.1508 30.1051 18.5773 30.683 15.7893 34.7284C13.0014 38.7738 13.1436 43.2635 13.501 45.5029C13.8584 47.7424 12.9299 53.9441 12.7154 55.1722C12.501 56.4002 12.5725 58.4575 12.0006 62.5029C11.4287 66.5483 12.7154 71.9317 12.358 72.9431C12.0006 73.9544 12.0006 76.3383 12.0006 77.6386V77.6386C12.0006 78.6789 12.4771 80.4319 12.7154 81.1784C12.9061 81.4914 13.4303 82.2042 14.0022 82.5509C14.717 82.9844 15.5749 83.9235 15.8608 83.4178C16.1468 82.9121 16.0038 82.8399 15.3604 82.1175C14.717 81.3951 14.2166 80.9617 14.0022 79.9503C13.8306 79.1412 14.5026 77.8794 14.5741 77.4219C14.7885 77.6386 15.2889 78.8667 15.3604 79.5891C15.4319 80.3115 15.8608 80.5282 16.3612 80.456C16.8616 80.3837 16.6472 78.8667 16.6472 78.0721C16.6472 77.2774 16.5757 75.8326 16.6472 75.038C16.7044 74.4023 16.1468 73.6655 15.8608 73.3765C16.2421 71.9558 16.1288 72.0556 17.001 69.0029C18.001 65.5029 18.0451 65.2823 19.001 60.5029C19.501 58.0029 20.2623 53.3641 20.5006 53.0029C20.7293 57.7418 19.123 63.7547 19.501 68.5029C19.9393 74.0082 19.8429 75.5113 20.5006 79.9503C21.5654 87.1376 23.501 91.5029 25.001 98.0029C27.2176 96.8817 27.4405 93.4878 29.501 94.0029C33.501 95.0029 32.001 85.0029 35.501 79.5891Z" fill="#F5F5F5" stroke="#8E8E8E" stroke-width="0.5" stroke-linejoin="round"/>
<path d="M51.5 70.0029C49 75.0029 48 74.5029 46 75.0029C50 75.0029 49.6667 74.3363 50.5 73.0029L51.5 70.0029Z" fill="#8E8E8E"/>
<path d="M18 70.0029C20 74.4029 23.5 75.0029 27.5 75.5029C21.5 76.0029 19.8333 73.8363 19 72.5029L18 70.0029Z" fill="#8E8E8E"/>
<ellipse cx="30.5658" cy="69.5843" rx="1.54144" ry="0.5" transform="rotate(-3.04777 30.5658 69.5843)" fill="#8C8C8C"/>
<path d="M17.7331 44.0452C17.7329 50.7783 28.7712 49.9479 29.9943 49.278C28.1301 49.8656 24 49.278 21.4941 48.2783C19.4402 47.4589 17.9941 45.2783 17.7331 44.0452Z" fill="#8C8C8C"/>
<path d="M49.4992 44.0025C49 51.0029 38.7207 49.9479 37.4976 49.278C38.2729 49.5029 42.4998 49.6518 45.9998 48.0029C48.0003 47.0605 49.2382 45.2356 49.4992 44.0025Z" fill="#8C8C8C"/>
<path d="M48 50.0029L48.2471 50.25C42.6471 50.65 40 51.0029 38 49.5029H40.5L45 49.0029L48 47.5029L47.5 49.0029L48 50.0029Z" fill="#8E8E8E"/>
<path d="M20 59.0029C20 60.5841 21.5 52.0029 20.5 50.5029C19.5 49.0029 27 51.0029 29 49.5029H26.5L22 49.0029L20 48.0029L18 45.5029L19 48.5029L19.5 50.0029L20 52.0029C20.3638 53.4581 20 57.0029 20 59.0029Z" fill="#8E8E8E"/>
<path d="M17.0001 56.0029C17.914 50.8265 19.5154 49.6696 20.0004 49.0029C20.9705 49.5029 23.4224 60.6696 22.9368 65.5029L20.0004 73.5029C15.5 70.0029 16.0862 61.1791 17.0001 56.0029Z" fill="#8C8C8C"/>
<path d="M17.5319 56.5611C18.6905 50.5146 19.7759 50.7781 20.5 50.0029C26.2941 50.0029 28.3954 60.2432 27.6705 65.8634L21.8791 74.0029C16.8083 72.2587 16.3732 62.6076 17.5319 56.5611Z" fill="#F5F5F5"/>
<path d="M28.2673 16.4709C28.0916 14.8899 26.7546 11.7861 26.291 10.3223C26.8278 10.3223 28.4283 10.3958 29.0724 11.5669C29.7165 12.738 28.804 15.3242 28.2673 16.4709Z" fill="#8C8C8C"/>
<path d="M27.8779 11.6644L27.8662 11.5582L27.7814 11.4932C26.5946 10.5841 26.1143 9.23535 26.405 7.97779C26.6951 6.72302 27.7673 5.50503 29.7976 4.90123C33.0747 3.92664 35.6042 4.94518 36.4297 5.54426L36.4954 5.59193H36.5766C39.5342 5.59193 40.9687 6.62283 41.6083 7.83941C42.261 9.08083 42.1287 10.5921 41.7914 11.6132L41.7788 11.6514V11.6916C41.7788 12.8168 41.6744 15.1869 41.5173 17.3915C41.4388 18.4931 41.3474 19.5499 41.2497 20.3863C41.2008 20.8048 41.1507 21.1653 41.1003 21.4475C41.0483 21.7389 41.0002 21.9211 40.9631 22.0015C40.8736 22.195 40.596 22.5908 40.1791 23.092C39.7688 23.5853 39.2408 24.1603 38.6698 24.7071C38.098 25.2547 37.4885 25.7687 36.9151 26.1441C36.3319 26.5259 35.8243 26.7385 35.447 26.7385C35.0661 26.7385 34.5064 26.5163 33.8443 26.1225C33.1944 25.7358 32.4861 25.2088 31.8207 24.6532C31.156 24.0981 30.5395 23.519 30.0735 23.0313C29.8404 22.7874 29.6471 22.5686 29.505 22.389C29.3561 22.2007 29.2828 22.079 29.2631 22.0233C29.243 21.9661 29.2091 21.8174 29.1643 21.5713C29.1209 21.333 29.0702 21.0212 29.0141 20.652C28.9021 19.9141 28.7695 18.9529 28.6321 17.904C28.3574 15.8065 28.0641 13.3633 27.8779 11.6644Z" fill="#F5F5F5" stroke="#8E8E8E" stroke-width="0.5"/>
<path d="M41.2971 7.10179C41.8828 11.8594 31.3414 14.9677 25.9264 13.5429C14.7997 10.6151 25.0633 10.3406 25.6335 8.41928C26.6584 4.96609 28.6345 3.00293 33.0994 3.00293C39.2477 3.00293 41.2971 4.55508 41.2971 7.10179Z" fill="#8C8C8C"/>
<path d="M42.3211 11.4206C41.5039 13.2651 41.213 11.3559 38.881 10.3227C36.549 9.28957 33.5138 8.819 34.3309 6.97451C35.1481 5.13002 37.701 4.4723 40.033 5.50545C42.3651 6.53859 43.1382 9.57614 42.3211 11.4206Z" fill="#8C8C8C"/>
</g>
</svg>
