<svg width="72" height="89" viewBox="0 0 72 89" fill="none" xmlns="http://www.w3.org/2000/svg">
<mask id="mask0_1880_7104" style="mask-type:alpha" maskUnits="userSpaceOnUse" x="0" y="0" width="72" height="89">
<rect width="72" height="89" rx="20" fill="#414141"/>
</mask>
<g mask="url(#mask0_1880_7104)">
<path d="M19.3958 35.3823C20.5328 31.5591 24.8241 30.9522 26.8276 31.1267C28.3636 34.6352 26.6963 38.7438 25.6706 40.3595C25.2261 44.1936 22.7874 51.763 21.6236 55.0684C20.9043 58.2808 19.3912 62.3552 17.6585 64.5828C16.2724 66.3649 14.9477 71.8797 14.5 73.9961C14.9639 74.4835 15.5 76.6908 15.5 77.4961C15.5 78.3747 14.9151 79.2694 14.8159 80.1252C14.7167 80.981 14.295 81.6259 13.9068 81.234C13.5186 80.8421 13.8485 79.4926 13.7567 78.7881C13.6833 78.2245 13.1713 77.8529 12.9244 77.7376C12.5424 78.0402 12.2125 79.3897 12.2683 79.6564C12.3242 79.923 12.7037 82.5166 14.099 83.1987C15.4944 83.8809 14.3715 84.4961 14.099 84.4961C13.498 84.4961 11.952 83.5691 11.498 82.9961C11.0441 82.4231 10.326 79.9516 10.3595 78.9147C10.3862 78.0852 11.2454 76.0107 11.6716 75.0772C12.8759 69.9261 13.9449 59.2086 14.8057 56.2728C15.6664 53.337 16.8943 53.2192 17.2614 50.0526C17.6285 46.8861 17.9744 40.1612 19.3958 35.3823Z" fill="#F5F5F5" stroke="url(#paint0_linear_1880_7104)" stroke-width="0.5"/>
<path d="M17.6687 78.1335C19.1359 83.4774 21.9097 88.1777 23.3627 90.8738H32.7587C33.5337 86.7436 33.9302 79.8141 33.6073 77.3475C34.0381 76.9167 34.2104 76.6583 34.4055 75.902C34.0955 81.6842 36.0199 88.2924 37.0208 90.8738H47.773C49.2905 84.8793 52.9921 73.4235 52.9921 68.7427C52.9921 62.5952 49.4826 57.3597 48.2789 56.5442C48.8566 55.6366 49.6634 51.7159 49.2014 50.3918C49.8148 50.1623 51.7809 49.1538 52.3257 46.4287C52.8705 43.7035 51.0987 38.7308 50.4852 38.1285C52.3257 32.7938 50.3638 31.1535 48.549 30.1264C45.5195 28.4118 42.051 30.4785 40.6948 29.7041C39.6099 29.0846 39.5394 25.1932 39.7331 23.501H32.565C33.3399 24.7056 32.8757 28.5855 31.9071 29.7041C30.9384 30.8227 30.3371 30.6427 25.6875 31.245C22.5796 31.6476 18.2288 38.1285 18.2288 43.5856C18.2288 46.9456 19.3927 48.6985 20.6842 49.5302C20.3393 51.7702 20.1061 56.0669 20.3393 56.5442C13.9261 62.8731 16.2471 72.9557 17.6687 78.1335Z" fill="#F5F5F5" stroke="url(#paint1_linear_1880_7104)" stroke-width="0.5"/>
<path d="M29.9997 30.9961C25.1997 30.9961 21.9997 30.9961 20.0005 34.4961C17 42.4961 17.9997 51.4961 23.4997 44.4961C26.4139 40.787 35.9997 30.9961 29.9997 30.9961Z" fill="#F5F5F5"/>
<path d="M40 47.9961C41.5 52.4961 47.8333 55.8294 50 55.4961L50.5 49.4961L51.5 47.9961C49 51.4961 42.5 50.2394 40 47.9961Z" fill="#8D8D8D"/>
<path d="M55.4492 31.1884C48.7716 28.3263 45.8423 29.3036 43.6023 29.6186C38.0887 30.394 37.4421 33.5481 41.7069 36.5111C45.1188 38.8814 52.7347 40.388 55.4492 40.6836C56.9562 41.9387 60.6486 43.5532 61.3848 43.7789C57.7096 44.4409 52.8031 47.9807 50.8093 49.6678C48.352 51.1222 46.9677 53.2687 47.1982 55.2509C47.4288 57.233 46.6218 60.1856 47.4793 60.0311C48.1654 59.9076 48.6756 58.4207 49.0533 57.8257L51.5153 61.4961C52.0628 60.3224 51.2018 54.6562 51.5153 53.5879C51.8288 52.5196 53.1372 52.4105 55.972 51.6469C58.8069 50.8834 67.3559 47.4671 68.0369 46.3326C68.718 45.1981 68.8455 42.8864 68.0369 40.6836C67.4739 39.15 59.2824 32.8313 55.4492 31.1884Z" fill="#F5F5F5" stroke="url(#paint2_linear_1880_7104)" stroke-width="0.5"/>
<path d="M48.0002 29.4961C43.2002 29.4961 45.0013 30.4961 37.5018 29.9961C36.7018 44.7961 46.8333 44.8294 51.5 42.9961C50.5 39.9961 52.8002 29.4961 48.0002 29.4961Z" fill="#F5F5F5"/>
<path d="M35.045 60.4146C35.045 61.1543 34.8956 61.7539 34.5297 61.7539C34.1638 61.7539 33.8672 61.1543 33.8672 60.4146C33.8672 59.7724 34.4583 58.6523 34.8241 58.6523C35.19 58.6523 35.045 59.6749 35.045 60.4146Z" fill="#8C8C8C"/>
<path d="M31 47.9961C29 51.4961 22.1667 54.8294 20 54.4961L20.5 49.4961L19.5 47.9961C22 51.4961 28.5 50.2394 31 47.9961Z" fill="#8D8D8D"/>
<path d="M46.0937 26.5473C37.5528 21.4868 29.756 22.4926 25.712 23.628C24.2566 0.75913 36.8737 1.24554 40.4153 4.85766C48.5204 4.85772 47.0643 19.735 46.0937 26.5473Z" fill="#8C8C8C"/>
<path d="M43.3765 18.3498C43.2192 21.0115 41.8592 23.362 40.2259 25.0334C39.4102 25.8682 38.532 26.5274 37.7128 26.9677C36.8876 27.4112 36.1464 27.6197 35.5985 27.5873C35.0506 27.5549 34.3391 27.2606 33.5719 26.723C32.8102 26.1894 32.0158 25.4313 31.304 24.5063C29.8789 22.6541 28.8052 20.1599 28.9624 17.4982C29.0012 16.8424 29.0203 16.2007 29.0386 15.5836C29.0396 15.5526 29.0405 15.5216 29.0414 15.4908C29.0607 14.8437 29.0802 14.2252 29.1217 13.6385C29.2049 12.4614 29.3752 11.4404 29.7893 10.6116C30.1977 9.79424 30.8501 9.15016 31.9325 8.73612C33.0253 8.3181 34.5641 8.1321 36.7404 8.26069C38.9168 8.38929 40.4229 8.75519 41.4589 9.299C42.4851 9.83762 43.0571 10.554 43.3663 11.4138C43.6799 12.2856 43.7288 13.3196 43.6728 14.4982C43.6449 15.0857 43.5915 15.7022 43.5345 16.3471C43.5317 16.3778 43.529 16.4087 43.5263 16.4395C43.4718 17.0546 43.4152 17.6941 43.3765 18.3498Z" fill="#F5F5F5" stroke="#8E8E8E" stroke-width="0.5"/>
<path d="M45.2678 14.4196C35.0468 12.7731 31.0071 10.3511 28.0566 11.0021C28.3845 9.21199 30.7121 5.63184 37.3999 5.63184C44.0876 5.63184 45.4317 11.4903 45.2678 14.4196Z" fill="#8C8C8C"/>
</g>
<defs>
<linearGradient id="paint0_linear_1880_7104" x1="17.4422" y1="37.0549" x2="0.292434" y2="31.5867" gradientUnits="userSpaceOnUse">
<stop offset="0.0208333" stop-color="#8C8C8C"/>
<stop offset="0.817708" stop-color="#8C8C8C"/>
<stop offset="0.817808" stop-color="#8C8C8C" stop-opacity="0"/>
</linearGradient>
<linearGradient id="paint1_linear_1880_7104" x1="22.9528" y1="32.3333" x2="-23.3266" y2="10.1647" gradientUnits="userSpaceOnUse">
<stop offset="0.0208333" stop-color="#8C8C8C"/>
<stop offset="0.817708" stop-color="#8C8C8C"/>
<stop offset="0.817808" stop-color="#8C8C8C" stop-opacity="0"/>
</linearGradient>
<linearGradient id="paint2_linear_1880_7104" x1="44.2352" y1="33.5735" x2="39.8308" y2="30.7157" gradientUnits="userSpaceOnUse">
<stop offset="0.0208333" stop-color="#8C8C8C"/>
<stop offset="0.817708" stop-color="#8C8C8C"/>
<stop offset="0.817808" stop-color="#8C8C8C" stop-opacity="0"/>
</linearGradient>
</defs>
</svg>
