<svg width="72" height="89" viewBox="0 0 72 89" fill="none" xmlns="http://www.w3.org/2000/svg">
<mask id="mask0_1880_7059" style="mask-type:alpha" maskUnits="userSpaceOnUse" x="0" y="0" width="72" height="89">
<rect width="72" height="89" rx="20" fill="#414141"/>
</mask>
<g mask="url(#mask0_1880_7059)">
<path d="M57.259 82.4352C57.3532 83.7677 56.4723 83.7021 56.0202 83.5027C56.1708 82.3998 56.0689 82.0086 56.105 80.902C56.1412 79.7953 55.4575 79.6622 56.2368 76.8626C57.0162 74.063 56.3488 73.4319 55.7301 71.3068C55.1115 69.1817 50.9542 61.291 50.4628 58.7823C49.9713 56.2736 50.3727 54.5141 49.9632 53.0052C49.5538 51.4962 48.5004 48.9605 47.4993 44.4964C46.4983 40.0323 48.9113 31.5331 52.2783 33.0696C56.5 34.9961 54.7824 49.3958 55.2125 53.7858C55.6426 58.1759 58.367 69.5649 58.9947 71.4133C59.6224 73.2617 59.3843 73.5309 59.4555 74.8627C59.5267 76.1944 60.3419 79.3231 60.3257 79.8211C60.3094 80.3191 59.9008 82.2999 59.5892 83.0652C59.2775 83.8305 58.0942 84.9552 57.1615 85.4233C56.2289 85.8914 56.3489 85.7291 56.605 84.9066C56.8612 84.084 58.0247 83.5681 58.1826 82.2438C58.3089 81.1844 57.8264 80.275 57.5694 79.9527C57.4267 80.225 57.1649 81.1027 57.259 82.4352Z" fill="#F5F5F5" stroke="url(#paint0_linear_1880_7059)" stroke-width="0.5"/>
<path d="M34.4519 27.3609C34.7897 25.9016 34.6344 24.3291 34.3672 23.2293L40.3281 22.3527C40.1011 24.6746 40.2434 26.3713 40.7363 27.703C41.2547 29.1037 42.1511 30.0742 43.3506 30.9369C43.9978 31.4024 44.9115 31.5642 45.8824 31.6446C46.3202 31.6809 46.7815 31.7011 47.2475 31.7215C47.3037 31.724 47.3599 31.7264 47.4161 31.7289C47.9415 31.7523 48.4721 31.7784 48.9943 31.8299C50.0418 31.9332 51.0304 32.1368 51.8406 32.6045C52.6406 33.0664 53.2814 33.7942 53.6245 34.9827C54.305 37.3405 52.831 39.7706 50.9279 41.7631C49.0412 43.7384 46.8154 45.1958 46.1912 45.5829C45.5362 45.9891 44.8591 46.586 44.2158 47.2093C43.8213 47.5915 43.4297 47.9935 43.0615 48.3716C42.8323 48.6069 42.6122 48.8329 42.406 49.0391C41.6586 49.7864 41.0873 50.4686 40.8051 51.1965C40.5161 51.9418 40.5387 52.7106 40.9213 53.6051C41.1347 54.104 41.6492 54.5193 42.295 54.9403C42.6632 55.1803 43.102 55.4387 43.5862 55.7238C43.9552 55.941 44.3506 56.1738 44.7612 56.4259C46.682 57.605 49.0787 59.2867 51.3693 62.1477C53.6285 64.9694 54.0919 68.5122 53.8437 71.8809C53.6249 74.8492 52.8569 77.6498 52.3052 79.6612C52.2306 79.933 52.16 80.1905 52.0953 80.432C51.6617 82.0487 51.0904 84.2831 50.6147 86.2951C50.1851 88.112 49.8277 89.771 49.7268 90.6209H40.3259C40.1666 90.1475 40.0148 89.3883 39.8689 88.4473C39.7069 87.4021 39.5557 86.1586 39.4081 84.8869C39.3714 84.5711 39.335 84.2533 39.2986 83.9362C39.0434 81.7119 38.7924 79.5243 38.5078 78.3302L38.3759 77.7769L38.0574 78.2482C36.4699 80.5982 33.427 83.3219 30.3714 85.6554C27.3521 87.9612 24.3535 89.8612 22.7965 90.6209H8.45929C10.4573 87.5965 14.1083 83.5441 17.8113 79.765C21.6688 75.8282 25.5647 72.2061 27.6639 70.3836L27.7921 70.2723L27.7359 70.1121C27.3585 69.0361 27.2089 67.7735 27.2313 66.1014C27.2536 64.4283 27.4477 62.3609 27.7484 59.6797C28.0516 56.9762 27.9485 54.4022 27.7168 52.4127C27.6009 51.4178 27.4526 50.5666 27.3059 49.9162C27.2326 49.5912 27.1593 49.3143 27.0899 49.0935C27.0221 48.8777 26.9536 48.7005 26.8863 48.5849C26.8548 48.5307 26.8114 48.4893 26.7783 48.461C26.7424 48.4303 26.701 48.4006 26.659 48.3725C26.5783 48.3185 26.4753 48.2574 26.3655 48.1923L26.3542 48.1857C26.121 48.0474 25.8349 47.8771 25.5476 47.6594C24.9709 47.2224 24.4217 46.619 24.3081 45.7625C24.1367 44.4695 24.3754 43.2053 24.7544 42.1461C25.1339 41.0856 25.6483 40.2468 26.009 39.8093L26.3463 39.4003H25.8161C25.42 39.4003 24.913 39.2525 24.4002 38.9708C23.8903 38.6909 23.3931 38.2886 23.0139 37.8022C22.635 37.3162 22.3796 36.754 22.336 36.1503C22.2927 35.5502 22.4569 34.8879 22.9527 34.1926C23.469 33.4685 23.924 32.9946 24.3847 32.6657C24.8432 32.3384 25.3197 32.1458 25.8926 32.0005C26.3601 31.8819 26.8817 31.7969 27.5085 31.6948C27.6602 31.6701 27.818 31.6443 27.9827 31.6169C28.8227 31.477 29.823 31.2948 31.0508 30.9759C33.1118 30.4406 34.0819 28.9592 34.4519 27.3609Z" fill="#F5F5F5" stroke="#8E8E8E" stroke-width="0.5"/>
<mask id="mask1_1880_7059" style="mask-type:alpha" maskUnits="userSpaceOnUse" x="8" y="22" width="47" height="69">
<path d="M22.8539 90.8709H8C11.8969 84.7018 23.2904 73.8497 27.5 70.1948C26.7182 67.9657 26.8986 65.0137 27.5 59.6518C28.1014 54.29 27.0912 49.4336 26.6703 48.7107C26.5014 48.4206 24.3128 47.7004 24.0603 45.7953C23.7041 43.1092 25.0544 40.5741 25.8161 39.6503C24.012 39.6503 20.6443 36.9995 22.7491 34.0475C24.8539 31.0954 26.1168 31.9991 30.988 30.734C34.8849 29.7218 34.6563 25.1713 34.055 23.0225L40.6099 22.0586C40.0687 26.9987 41.1512 29.0471 43.4965 30.734C45.8419 32.4208 52.4214 29.913 53.8647 34.9134C55.308 39.9137 47.5859 45.0122 46.323 45.7953C45.0601 46.5785 43.6773 48.1213 42.5828 49.2158C41.0943 50.7043 40.4295 51.8199 41.1512 53.5068C41.8728 55.1937 46.9339 56.2078 51.5645 61.9914C56.1951 67.775 53.4192 76.4603 52.3367 80.4968C51.4708 83.7259 50.0538 89.425 49.9536 90.8709H40.1512C39.3814 88.9431 38.906 81.0792 38.2646 78.3882C35.0412 83.1596 25.9811 89.3648 22.8539 90.8709Z" fill="#F5F5F5"/>
</mask>
<g mask="url(#mask1_1880_7059)">
<path d="M45.74 47.0095C45.74 50.1471 49.2762 56.4941 46.5 56.4941C40.1236 56.4941 35.5 47.6318 35.5 44.4941C35.5 41.3565 38.5543 40.9941 41.7052 40.9941C44.8561 40.9941 45.74 43.8719 45.74 47.0095Z" fill="#8C8C8C"/>
</g>
<path d="M24.8479 47.0095C24.8479 50.1471 21.7238 54.9941 24.5 54.9941C30.8764 54.9941 35.0879 47.6318 35.0879 44.4941C35.0879 41.3565 32.0336 40.9941 28.8827 40.9941C25.7318 40.9941 24.8479 43.8719 24.8479 47.0095Z" fill="#8C8C8C"/>
<path d="M54.5 39.4941C54.1 35.4941 54 34.4941 52 32.9941L47 41.9941L48.5 46.9941C50.8333 46.8275 54.9 43.4941 54.5 39.4941Z" fill="#F5F5F5"/>
<path d="M36.9277 64.039C37.1295 64.9173 37.376 65.6983 37.1449 65.7514C36.9138 65.8045 36.2926 65.1096 36.0907 64.2314C35.8888 63.3532 36.3693 62.6694 36.6005 62.6162C36.8316 62.5631 36.7258 63.1608 36.9277 64.039Z" fill="#8C8C8C"/>
<path d="M47.0353 26.0092C38.6889 21.0639 31.0695 22.0469 27.1176 23.1564C25.6952 0.808099 38.0251 1.28344 41.4861 4.81333C49.4068 4.81339 47.9838 19.352 47.0353 26.0092Z" fill="#8C8C8C"/>
<path d="M44.3729 17.9976C44.2194 20.597 42.8912 22.8927 41.2957 24.5254C40.4989 25.3408 39.6412 25.9846 38.8411 26.4146C38.0352 26.8478 37.312 27.051 36.778 27.0194C36.2441 26.9879 35.5499 26.7009 34.8005 26.1759C34.0567 25.6547 33.2807 24.9143 32.5855 24.0107C31.1934 22.2015 30.1448 19.7654 30.2984 17.166C30.3363 16.5251 30.3549 15.8979 30.3729 15.2949C30.3738 15.2645 30.3747 15.2343 30.3756 15.2041C30.3944 14.5717 30.4135 13.9674 30.454 13.3942C30.5353 12.2442 30.7017 11.2473 31.1058 10.4384C31.5043 9.64091 32.1407 9.01247 33.1972 8.60836C34.2641 8.20027 35.7669 8.01848 37.8933 8.14412C40.0198 8.26977 41.4907 8.62726 42.5021 9.15815C43.5036 9.68387 44.0616 10.3829 44.3634 11.2217C44.6694 12.0726 44.7173 13.0821 44.6626 14.2337C44.6353 14.8077 44.5831 15.4101 44.5273 16.0403C44.5247 16.0704 44.522 16.1005 44.5193 16.1308C44.4661 16.7317 44.4108 17.3567 44.3729 17.9976Z" fill="#F5F5F5" stroke="#8E8E8E" stroke-width="0.5"/>
<path d="M46.2276 14.158C36.2393 12.549 32.2915 10.1822 29.4082 10.8183C29.7286 9.06897 32.0032 5.57031 38.5387 5.57031C45.0743 5.57031 46.3878 11.2954 46.2276 14.158Z" fill="#8C8C8C"/>
<path d="M15.1738 83.5148C14.5521 84.4774 13.7989 84.2367 13.5 83.9961C14.2173 81.1687 15.5209 80.1239 17.1349 77.4166C18.749 74.7093 18.6294 73.3257 19.4663 71.3404C20.3032 69.3551 20.7814 62.0156 21.3194 58.3459C21.8574 54.6761 22.6943 53.894 22.8139 52.8713C22.9335 51.8486 21.9172 46.0732 21.6781 39.1548C21.439 32.2364 26.3857 31.5734 27.9997 31.9946C29.6137 32.4157 27.7755 45.2911 27.8353 47.2163C27.8951 49.1414 27.8951 55.5785 27.2375 58.3459C26.5799 61.1132 24.3681 67.6105 22.9335 70.799C21.4988 73.9875 21.4988 75.6118 21.8574 76.9353C22.2161 78.2589 22.4997 78.4865 22.4997 81.4945C22.4997 84.5026 20.9995 83.0996 20.9997 81.9945C21 80.4961 19.9663 79.9961 19.4663 79.9961C18.6025 79.9961 17.2529 80.8875 16.5675 81.7253C15.8098 82.6514 15.9509 82.3116 15.1738 83.5148Z" fill="#F5F5F5" stroke="url(#paint1_linear_1880_7059)" stroke-width="0.5"/>
<circle cx="29.6457" cy="43.8537" r="5.6457" fill="#8C8C8C"/>
<path d="M25.4992 32.4941C26 31.9941 30.9999 31.1608 31.9999 30.9941C33.4999 33.9941 29.9999 36.9941 27.9999 37.4941C25.9999 37.9941 24.3802 33.6113 25.4992 32.4941Z" fill="#F5F5F5"/>
<path d="M35.4594 43.1887C35.4594 46.3067 32.9317 48.8344 29.8137 48.8344C26.6956 48.8344 24.168 46.3067 24.168 43.1887C24.168 40.0706 26.6956 33.9941 29.8137 33.9941C32.9317 33.9941 35.4594 40.0706 35.4594 43.1887Z" fill="#F5F5F5"/>
<circle cx="40.9348" cy="43.8537" r="5.6457" fill="#8C8C8C"/>
<path d="M46.4144 43.1887C46.4144 46.3067 43.8868 48.8344 40.7687 48.8344C37.6507 48.8344 35.123 46.3067 35.123 43.1887C35.123 40.0706 37.6507 34.9941 40.7687 34.9941C43.8868 34.9941 46.4144 40.0706 46.4144 43.1887Z" fill="#F5F5F5"/>
</g>
<defs>
<linearGradient id="paint0_linear_1880_7059" x1="50.0084" y1="39.7373" x2="29.3458" y2="34.1165" gradientUnits="userSpaceOnUse">
<stop offset="0.0208333" stop-color="#8C8C8C"/>
<stop offset="0.817708" stop-color="#8C8C8C"/>
<stop offset="0.817808" stop-color="#8C8C8C" stop-opacity="0"/>
</linearGradient>
<linearGradient id="paint1_linear_1880_7059" x1="21" y1="37.4941" x2="31.4556" y2="28.3974" gradientUnits="userSpaceOnUse">
<stop offset="0.0208333" stop-color="#8C8C8C"/>
<stop offset="0.817708" stop-color="#8C8C8C"/>
<stop offset="0.817808" stop-color="#8C8C8C" stop-opacity="0"/>
</linearGradient>
</defs>
</svg>
